<?xml version="1.0" encoding="utf-8"?>
<!-- Generator: Adobe Illustrator 15.0.0, SVG Export Plug-In . SVG Version: 6.00 Build 0)  -->
<!DOCTYPE svg PUBLIC "-//W3C//DTD SVG 1.1//EN" "http://www.w3.org/Graphics/SVG/1.1/DTD/svg11.dtd">
<svg version="1.1" id="图层_1" xmlns="http://www.w3.org/2000/svg" xmlns:xlink="http://www.w3.org/1999/xlink" x="0px" y="0px"
	 width="260px" height="260px" viewBox="-60 -30 260 260" enable-background="new -60 -30 260 260" xml:space="preserve">
<circle fill="#D5D3FF" cx="63.154" cy="100" r="120"/>
<path fill="#FF8469" d="M122.018,47.734h66.141c3.704,0,6.734,3.031,6.734,6.735v60.365c0,3.703-3.03,6.734-6.734,6.734h-66.141"/>
<path fill="#12126D" d="M188.158,123.521h-66.141v-3.906h66.141c2.637,0,4.781-2.145,4.781-4.781V54.469
	c0-2.636-2.145-4.781-4.781-4.781h-66.141v-3.906h66.141c4.791,0,8.688,3.897,8.688,8.688v60.365
	C196.846,119.624,192.949,123.521,188.158,123.521z"/>
<path fill="#FFFFFF" d="M120.949,69.312h70.614v4.49h-70.614V69.312z M184.5,101.414h-13.47c-1.24,0-2.245-1.005-2.245-2.245
	c0-1.24,1.006-2.245,2.245-2.245h13.47c1.24,0,2.244,1.005,2.244,2.245C186.744,100.409,185.74,101.414,184.5,101.414"/>
<path fill="#B4CEFC" d="M31.987,101.646c-2.476,0-4.49-2.016-4.49-4.49V63.482c0-2.476,2.014-4.49,4.49-4.49h70.789
	c2.476,0,4.489,2.014,4.489,4.49v33.674c0,2.476-2.014,4.49-4.489,4.49H31.987z"/>
<path fill="#12126D" d="M102.777,61.237c1.238,0,2.245,1.007,2.245,2.245v33.674c0,1.238-1.007,2.245-2.245,2.245h-70.79
	c-1.238,0-2.245-1.007-2.245-2.245V63.482c0-1.238,1.007-2.245,2.245-2.245H102.777 M102.777,56.747h-70.79
	c-3.719,0-6.734,3.016-6.734,6.735v33.674c0,3.719,3.015,6.734,6.734,6.734h70.789c3.719,0,6.735-3.016,6.735-6.734V63.482
	C109.512,59.763,106.496,56.747,102.777,56.747"/>
<path fill="#B4CEFC" d="M27.499,112.422h15.714v15.714H27.499V112.422z"/>
<path fill="#12126D" d="M40.967,125.891H29.742v-11.225h11.225V125.891z M43.354,110.177H27.356c-1.161,0-2.104,0.941-2.104,2.104
	v15.996c0,1.162,0.942,2.104,2.104,2.104h15.998c1.162,0,2.103-0.94,2.103-2.104V112.28
	C45.458,111.118,44.515,110.177,43.354,110.177"/>
<path fill="#B4CEFC" d="M91.552,112.422h15.715v15.714H91.552V112.422z"/>
<path fill="#12126D" d="M105.021,125.891H93.797v-11.225h11.225L105.021,125.891L105.021,125.891z M107.408,110.177H91.411
	c-1.162,0-2.104,0.941-2.104,2.104v15.996c0,1.162,0.941,2.104,2.104,2.104h15.997c1.161,0,2.104-0.94,2.104-2.104V112.28
	C109.512,111.118,108.57,110.177,107.408,110.177"/>
<path fill="#B4CEFC" d="M59.525,112.422h15.714v15.714H59.525V112.422z"/>
<path fill="#12126D" d="M72.994,125.891H61.771v-11.225h11.224V125.891z M75.381,110.177H59.384c-1.162,0-2.104,0.941-2.104,2.104
	v15.996c0,1.162,0.942,2.104,2.104,2.104h15.997c1.162,0,2.104-0.94,2.104-2.104V112.28
	C77.484,111.118,76.543,110.177,75.381,110.177"/>
<path fill="#B4CEFC" d="M27.499,141.605h15.714v15.715H27.499V141.605z"/>
<path fill="#12126D" d="M40.967,155.074H29.742V143.85h11.225V155.074z M43.354,139.359H27.356c-1.161,0-2.104,0.942-2.104,2.104
	v15.997c0,1.162,0.942,2.104,2.104,2.104h15.998c1.162,0,2.103-0.94,2.103-2.104v-15.997
	C45.458,140.303,44.515,139.359,43.354,139.359"/>
<path fill="#B4CEFC" d="M91.552,141.605h15.715v15.715H91.552V141.605z"/>
<path fill="#12126D" d="M105.021,155.074H93.797V143.85h11.225L105.021,155.074L105.021,155.074z M107.408,139.359H91.411
	c-1.162,0-2.104,0.942-2.104,2.104v15.997c0,1.162,0.941,2.104,2.104,2.104h15.997c1.161,0,2.104-0.94,2.104-2.104v-15.997
	C109.512,140.303,108.57,139.359,107.408,139.359"/>
<path fill="#B4CEFC" d="M59.525,141.605h15.714v15.715H59.525V141.605z"/>
<path fill="#12126D" d="M72.994,155.074H61.771V143.85h11.224V155.074z M75.381,139.359H59.384c-1.162,0-2.104,0.942-2.104,2.104
	v15.997c0,1.162,0.942,2.104,2.104,2.104h15.997c1.162,0,2.104-0.94,2.104-2.104v-15.997
	C77.484,140.303,76.543,139.359,75.381,139.359"/>
<path fill="#B4CEFC" d="M27.499,168.545h15.714v15.714H27.499V168.545z"/>
<path fill="#12126D" d="M40.967,182.014H29.742v-11.225h11.225V182.014z M43.354,166.299H27.356c-1.161,0-2.104,0.942-2.104,2.104
	V184.4c0,1.16,0.942,2.104,2.104,2.104h15.998c1.162,0,2.103-0.941,2.103-2.104v-15.998
	C45.458,167.241,44.515,166.299,43.354,166.299"/>
<path fill="#B4CEFC" d="M59.525,168.545h15.714v15.714H59.525V168.545z"/>
<path fill="#12126D" d="M72.994,182.014H61.771v-11.225h11.224V182.014z M75.381,166.299H59.384c-1.162,0-2.104,0.942-2.104,2.104
	V184.4c0,1.16,0.942,2.104,2.104,2.104h15.997c1.162,0,2.104-0.941,2.104-2.104v-15.998
	C77.484,167.241,76.543,166.299,75.381,166.299"/>
<path fill="#B4CEFC" d="M91.552,168.545h15.715v15.714H91.552V168.545z"/>
<path fill="#12126D" d="M105.021,182.014H93.797v-11.225h11.225L105.021,182.014L105.021,182.014z M107.408,166.299H91.411
	c-1.162,0-2.104,0.942-2.104,2.104V184.4c0,1.16,0.941,2.104,2.104,2.104h15.997c1.161,0,2.104-0.941,2.104-2.104v-15.998
	C109.512,167.241,108.57,166.299,107.408,166.299"/>
<path fill="#12126D" d="M116.771,30.204c1.217,0,2.244,1.028,2.244,2.245v160.816c0,1.217-1.027,2.243-2.244,2.243H17.994
	c-1.217,0-2.245-1.026-2.245-2.243V32.449c0-1.217,1.028-2.245,2.245-2.245H116.771 M116.771,25.714H17.994
	c-3.704,0-6.735,3.031-6.735,6.735v160.816c0,3.703,3.031,6.734,6.735,6.734h98.776c3.704,0,6.735-3.031,6.735-6.734V32.449
	C123.506,28.745,120.475,25.714,116.771,25.714"/>
<path fill="#12126D" d="M113.809,45.49h-90.92c-1.234,0-2.245,1.01-2.245,2.245s1.01,2.245,2.245,2.245h90.92
	c1.234,0,2.244-1.01,2.244-2.245S115.043,45.49,113.809,45.49"/>
<path fill="#B4CEFC" d="M27.378,2.245h79.769v45.489H27.378V2.245z"/>
<path fill="#12126D" d="M104.902,45.489H29.624v-41h75.279V45.489z M109.393,0H25.133v49.979h84.259V0z"/>
<path fill="#12126D" d="M91.551,10.615H39.544c-1.234,0-2.245,1.01-2.245,2.245s1.01,2.245,2.245,2.245h52.007
	c1.234,0,2.245-1.01,2.245-2.245S92.786,10.615,91.551,10.615 M72.044,25.714H39.105c-0.993,0-1.806,0.813-1.806,1.806v0.879
	c0,0.993,0.813,1.806,1.806,1.806h32.939c0.993,0,1.805-0.813,1.805-1.806V27.52C73.849,26.527,73.037,25.714,72.044,25.714"/>
</svg>
