<?xml version="1.0" encoding="utf-8"?>
<!-- Generator: Adobe Illustrator 15.0.0, SVG Export Plug-In . SVG Version: 6.00 Build 0)  -->
<!DOCTYPE svg PUBLIC "-//W3C//DTD SVG 1.1//EN" "http://www.w3.org/Graphics/SVG/1.1/DTD/svg11.dtd">
<svg version="1.1" id="图层_1" xmlns="http://www.w3.org/2000/svg" xmlns:xlink="http://www.w3.org/1999/xlink" x="0px" y="0px"
	 width="260px" height="260px" viewBox="-30 -30 260 260" enable-background="new -30 -30 260 260" xml:space="preserve">
<circle fill="#B9EEF2" cx="93.537" cy="100" r="120"/>
<path fill="#FF8469" d="M184.916,32.424c-8.494,0-15.406-6.912-15.406-15.406c0-8.495,6.912-15.407,15.406-15.407
	c8.496,0,15.406,6.912,15.406,15.407S193.412,32.424,184.916,32.424"/>
<path fill="#12126D" d="M184.916,3.223c7.605,0,13.795,6.188,13.795,13.794s-6.188,13.795-13.795,13.795
	c-7.605,0-13.795-6.188-13.795-13.795S177.311,3.223,184.916,3.223 M184.916,0c-9.398,0-17.018,7.619-17.018,17.018
	s7.619,17.018,17.018,17.018s17.018-7.619,17.018-17.018S194.314,0,184.916,0"/>
<path fill="#B4CEFC" d="M222.989,103.904l-26.349-20.252c0.045-0.25,0.09-0.523,0.09-0.774V47.837c0-2.139-1.729-3.868-3.868-3.868
	h-24.005c-2.139,0-3.869,1.729-3.869,3.868v11.491l-29.377-22.572c-1.387-1.07-3.322-1.07-4.709,0l-87.377,67.148
	c-1.32,1-1.844,2.736-1.296,4.301c0.523,1.568,2.002,2.615,3.663,2.615h23.914v70.381c0,9.146,7.441,16.609,16.612,16.609h93.701
	c9.148,0,16.611-7.439,16.611-16.609V110.82h23.914c1.662,0,3.117-1.047,3.664-2.615
	C224.833,106.635,224.309,104.904,222.989,103.904"/>
<path fill="#12126D" d="M180.119,199.764H86.418c-10.237,0-18.565-8.326-18.565-18.563v-68.428H45.893
	c-2.507,0-4.72-1.582-5.512-3.938c-0.819-2.368-0.03-4.974,1.965-6.487l87.366-67.14C130.721,34.43,131.98,34,133.258,34
	c1.276,0,2.535,0.43,3.547,1.209l26.23,20.155v-7.527c0-3.21,2.611-5.821,5.822-5.821h24.005c3.21,0,5.821,2.611,5.821,5.821V82.76
	l25.496,19.596c1.972,1.496,2.771,4.098,1.981,6.468l-0.008,0.024c-0.818,2.35-3.032,3.928-5.511,3.928h-21.961v68.427
	C198.684,191.438,190.355,199.764,180.119,199.764z M133.258,37.907c-0.422-0.001-0.83,0.138-1.162,0.396l-87.379,67.149
	c-0.655,0.497-0.91,1.343-0.643,2.11l0.009,0.023c0.255,0.768,0.982,1.281,1.81,1.281H71.76V181.2
	c0,8.082,6.576,14.657,14.659,14.657h93.701c8.083,0,14.658-6.575,14.658-14.657v-72.333h25.867c0.826,0,1.537-0.508,1.815-1.294
	c0.254-0.777-0.008-1.626-0.651-2.114l-27.304-20.984l0.214-1.171c0.016-0.09,0.059-0.329,0.059-0.426V47.837
	c0-1.056-0.859-1.915-1.915-1.915h-24.005c-1.057,0-1.916,0.859-1.916,1.915v15.455l-32.521-24.987
	C134.089,38.046,133.68,37.906,133.258,37.907z"/>
<path fill="#FF8469" d="M130.953,152.4c-20.035,0-36.333-16.301-36.333-36.336c0-20.034,16.299-36.334,36.333-36.334
	c20.035,0,36.335,16.3,36.335,36.334C167.288,136.1,150.988,152.4,130.953,152.4"/>
<path fill="#12126D" d="M130.954,81.919c9.121,0,17.694,3.552,24.144,10.001c6.451,6.45,10.002,15.023,10.002,24.145
	s-3.553,17.695-10.002,24.146s-15.022,10.001-24.144,10.001s-17.695-3.552-24.145-10.001c-6.449-6.449-10.001-15.024-10.001-24.146
	s3.552-17.694,10.001-24.145C113.259,85.471,121.833,81.919,130.954,81.919 M130.954,77.542c-21.275,0-38.523,17.248-38.523,38.522
	c0,21.275,17.248,38.523,38.523,38.523c21.276,0,38.522-17.248,38.522-38.523C169.477,94.79,152.229,77.542,130.954,77.542"/>
<path fill="#FFFFFF" d="M165.256,59.662V48.39c0-2.407,1.959-4.366,4.365-4.366h22.438c2.406,0,4.365,1.958,4.365,4.366v35.02
	L165.256,59.662z"/>
<path fill="#12126D" d="M192.059,46.395c1.101,0,1.994,0.895,1.994,1.995v30.234l-26.426-20.136V48.39
	c0-1.101,0.895-1.995,1.994-1.995H192.059 M192.059,41.653h-22.438c-3.721,0-6.734,3.016-6.734,6.736v11.47l35.907,27.947V48.39
	C198.794,44.669,195.777,41.653,192.059,41.653"/>
<path fill="#FFFFFF" d="M184.751,14.609c-1.181-0.092-2.104-1.09-2.104-2.278c0-1.266,1.021-2.295,2.274-2.295
	c1.248,0,2.265,1.03,2.265,2.295c0,0.719,0.58,1.304,1.297,1.304c0.716,0,1.299-0.585,1.299-1.304c0-2.197-1.484-4.138-3.566-4.722
	v-1.06c0-0.721-0.584-1.306-1.305-1.306c0,0-0.001,0-0.002,0c-0.709,0.016-1.285,0.604-1.285,1.311v1.063
	c-2.082,0.582-3.564,2.523-3.564,4.72c0,2.586,2,4.71,4.524,4.887l0.001,0.017h0.326c0.012,0,0.025-0.001,0.041-0.002
	c1.216,0.108,2.234,1.135,2.234,2.264c0,1.265-1.017,2.294-2.264,2.294c-1.255,0-2.275-1.029-2.275-2.294
	c0-0.719-0.58-1.305-1.297-1.305c-0.715,0-1.299,0.585-1.299,1.305c0,2.195,1.483,4.136,3.566,4.72v1.05
	c0,0.72,0.582,1.306,1.298,1.306c0.718,0,1.3-0.585,1.3-1.306V24.21c2.081-0.583,3.565-2.523,3.565-4.72
	C189.781,16.848,187.484,14.616,184.751,14.609L184.751,14.609z M132.36,111.004c-1.967-0.152-3.505-1.816-3.505-3.797
	c0-2.109,1.701-3.824,3.792-3.824c2.079,0,3.771,1.715,3.771,3.824c0,1.199,0.971,2.174,2.162,2.174
	c1.193,0,2.164-0.975,2.164-2.174c0-3.66-2.473-6.896-5.943-7.87V97.57c0-1.2-0.971-2.177-2.177-2.177
	c-1.182,0.026-2.143,1.006-2.143,2.185v1.771c-3.47,0.971-5.941,4.206-5.941,7.866c0,4.311,3.334,7.852,7.542,8.145l0.002,0.027
	h0.542c0.021,0,0.043-0.001,0.069-0.003c2.025,0.181,3.723,1.892,3.723,3.772c0,2.107-1.691,3.822-3.771,3.822
	c-2.091,0-3.792-1.715-3.792-3.822c0-1.199-0.97-2.176-2.162-2.176c-1.193,0-2.165,0.977-2.165,2.176
	c0,3.658,2.473,6.893,5.943,7.865v1.75c0,1.199,0.971,2.177,2.165,2.177c1.193,0,2.164-0.978,2.164-2.177v-1.771
	c3.471-0.971,5.942-4.205,5.942-7.865C140.744,114.734,136.916,111.016,132.36,111.004z"/>
</svg>
