<?xml version="1.0" encoding="utf-8"?>
<!-- Generator: Adobe Illustrator 15.0.0, SVG Export Plug-In . SVG Version: 6.00 Build 0)  -->
<!DOCTYPE svg PUBLIC "-//W3C//DTD SVG 1.1//EN" "http://www.w3.org/Graphics/SVG/1.1/DTD/svg11.dtd">
<svg version="1.1" id="图层_1" xmlns="http://www.w3.org/2000/svg" xmlns:xlink="http://www.w3.org/1999/xlink" x="0px" y="0px"
	 width="260px" height="260px" viewBox="-30 -30 260 260" enable-background="new -30 -30 260 260" xml:space="preserve">
<circle fill="#FFDAD2" cx="94.056" cy="100" r="120"/>
<path fill="#FF8469" d="M108.82,171.611c-36.545,0-66.173-29.627-66.173-66.172c0-36.547,29.626-66.173,66.173-66.173"/>
<path fill="#12126D" d="M219.256,4.459c1.209,0,2.229,1.021,2.229,2.229v186.446c0,1.208-1.021,2.229-2.229,2.229h-98.088
	c-1.209,0-2.229-1.021-2.229-2.229V6.688c0-1.208,1.021-2.229,2.229-2.229H219.256 M219.256,0h-98.088
	c-3.678,0-6.688,3.009-6.688,6.688v186.446c0,3.679,3.011,6.688,6.688,6.688h98.088c3.679,0,6.688-3.01,6.688-6.688V6.688
	C225.944,3.01,222.935,0,219.256,0"/>
<path fill="#B4CEFC" d="M130.605,27.142h79.212v145.54h-79.212V27.142z"/>
<path fill="#12126D" d="M207.589,170.451h-74.755V29.371h74.755V170.451L207.589,170.451z M212.048,24.912h-83.671V174.91h83.671
	V24.912z M157.579,12.291c-1.23,0-2.229,0.998-2.229,2.229s0.998,2.229,2.229,2.229c1.23,0,2.229-0.998,2.229-2.229
	C159.809,13.289,158.811,12.291,157.579,12.291 M182.102,12.291h-17.835c-1.227,0-2.229,1.003-2.229,2.229s1.002,2.229,2.229,2.229
	h17.835c1.226,0,2.229-1.003,2.229-2.229S183.327,12.291,182.102,12.291 M170.217,183.291c1.229,0,2.229,1.001,2.229,2.23
	c0,1.229-1,2.229-2.229,2.229s-2.229-1-2.229-2.229C167.987,184.292,168.987,183.291,170.217,183.291 M170.217,178.833
	c-3.694,0-6.688,2.994-6.688,6.688c0,3.692,2.994,6.688,6.688,6.688c3.692,0,6.688-2.994,6.688-6.688
	C176.905,181.827,173.909,178.833,170.217,178.833"/>
<path fill="#FFFF00" d="M107.865,170.477c-1.264,0-2.521-0.035-3.773-0.104c-0.473-0.389-0.811-0.982-0.811-1.721h5.881v1.813
	c-0.431,0.008-0.859,0.014-1.287,0.014h-0.01V170.477z M103.281,41.098c0-0.927,0.534-1.628,1.199-1.978
	c1.561-0.079,3.122-0.103,4.684-0.072v2.049h-1.644v0.001H103.281z"/>
<path fill="#12126D" d="M107.869,36.806c-18.185,0-35.277,7.08-48.135,19.938c-1.22,1.222-2.374,2.494-3.491,3.79
	c-0.064,0.024-0.13,0.021-0.194,0.053c-0.603,0.302-0.967,0.857-1.095,1.469c-9.817,12.082-15.155,27.04-15.153,42.821
	c0,15.781,5.341,30.736,15.152,42.818c0.128,0.613,0.492,1.168,1.095,1.471c0.063,0.029,0.131,0.025,0.195,0.049
	c1.115,1.301,2.271,2.451,3.491,3.676c12.857,12.855,29.949,19.814,48.131,19.814h0.01c1.18,0,2.352-0.03,3.517-0.09v-4.299
	c-0.136,0.119-0.256,0.223-0.354,0.307c-0.388,0.018-1.289,0.018-1.289,0.029v-40.424c0.556,0.011,1.103,0.025,1.644,0.045v-4.24
	c-0.543-0.02-1.09-0.035-1.644-0.047v-16.99h1.644v-4.24h-1.644V85.765c0.554-0.01,1.1-0.027,1.644-0.045v-4.24
	c-0.541,0.019-1.088,0.034-1.644,0.045V41.097c0,0.012,0.9,0.015,1.291,0.035c0.098,0.083,0.217,0.186,0.353,0.304v-4.539
	C110.22,36.836,109.045,36.806,107.869,36.806 M105.511,81.524c-10.598-0.208-18.659-1.908-25.032-4.149
	c7.423-21.568,21.555-34.188,23.98-36.243c0.389-0.02,1.052-0.021,1.052-0.034V81.524z M76.627,75.794
	c-3.173-1.387-5.769-2.876-7.839-4.282c-4.982-3.384-7.737-6.762-9.008-8.588c0.948-1.085,1.925-2.154,2.952-3.183
	c9.584-9.583,21.683-15.729,34.809-17.853C91.82,47.68,82.341,59.111,76.627,75.794 M44.092,102.756
	c0.43-13.325,4.925-25.941,12.898-36.422c2.596,3.433,8.131,9.205,18.338,13.579c-1.969,6.828-3.258,14.455-3.448,22.844
	L44.092,102.756L44.092,102.756z M76.121,102.756c0.191-7.778,1.283-14.887,3.13-21.289c6.884,2.396,15.661,4.097,26.259,4.298
	v16.991H76.121L76.121,102.756z M79.25,128.284c-1.847-6.4-2.939-13.513-3.13-21.288h29.39v16.99
	C94.912,124.188,86.135,125.889,79.25,128.284 M56.99,143.418c-7.971-10.48-12.466-23.098-12.898-36.422H71.88
	c0.19,8.389,1.479,16.016,3.448,22.845C65.121,134.212,59.583,139.982,56.99,143.418 M105.511,168.652
	c0-0.012-0.663-0.012-1.05-0.033c-2.426-2.053-16.563-14.674-23.985-36.245c6.488-2.29,14.437-3.945,25.035-4.147V168.652z
	 M97.541,167.864c-13.124-2.122-25.223-8.27-34.809-17.853c-1.031-1.033-2.01-2.104-2.96-3.191
	c1.833-2.627,6.773-8.424,16.858-12.86C82.343,150.645,91.82,162.074,97.541,167.864"/>
<path fill="#FF8469" d="M169.239,121.223c-11.752,0-21.313-9.561-21.313-21.312s9.561-21.312,21.313-21.312
	s21.313,9.561,21.313,21.312S180.991,121.223,169.239,121.223"/>
<path fill="#12126D" d="M169.239,80.828c10.521,0,19.082,8.561,19.082,19.083c0,10.522-8.561,19.083-19.082,19.083
	s-19.082-8.561-19.082-19.083C150.157,89.388,158.717,80.828,169.239,80.828 M169.239,76.369c-13.002,0-23.541,10.54-23.541,23.542
	s10.539,23.541,23.541,23.541s23.541-10.539,23.541-23.541S182.241,76.369,169.239,76.369"/>
<path fill="#FFFFFF" d="M170.046,98.699c-1.18-0.091-2.104-1.09-2.104-2.277c0-1.266,1.021-2.295,2.274-2.295
	c1.248,0,2.263,1.029,2.263,2.295c0,0.719,0.581,1.303,1.299,1.303c0.715,0,1.297-0.584,1.297-1.303
	c0-2.197-1.482-4.139-3.564-4.723v-1.06c0-0.721-0.584-1.306-1.305-1.306c-0.002,0-0.002,0-0.002,0
	c-0.709,0.016-1.287,0.604-1.287,1.311v1.063c-2.08,0.582-3.563,2.523-3.563,4.72c0,2.586,2.001,4.71,4.524,4.888l0.002,0.017h0.326
	c0.012,0,0.024-0.001,0.041-0.002c1.215,0.106,2.232,1.135,2.232,2.264c0,1.265-1.015,2.294-2.263,2.294
	c-1.254,0-2.274-1.029-2.274-2.294c0-0.72-0.582-1.305-1.298-1.305c-0.715,0-1.299,0.585-1.299,1.305
	c0,2.195,1.483,4.136,3.565,4.72v1.051c0,0.721,0.582,1.306,1.3,1.306c0.716,0,1.299-0.585,1.299-1.306V108.3
	c2.082-0.582,3.565-2.522,3.565-4.72C175.077,100.938,172.78,98.707,170.046,98.699L170.046,98.699z"/>
</svg>
