<?xml version="1.0" standalone="no"?><!DOCTYPE svg PUBLIC "-//W3C//DTD SVG 1.1//EN" "http://www.w3.org/Graphics/SVG/1.1/DTD/svg11.dtd"><svg t="1521558275732" class="icon" style="" viewBox="0 0 1024 1024" version="1.1" xmlns="http://www.w3.org/2000/svg" p-id="1383" xmlns:xlink="http://www.w3.org/1999/xlink" width="200" height="200"><defs><style type="text/css"></style></defs><path d="M232 560h224v368h-224zM943.904 304H128.096A32 32 0 0 0 96 335.888v62.304C105.456 435.696 140.848 464 183.312 464s77.856-28.304 85.696-65.808h3.232C280.096 435.696 315.488 464 357.952 464c42.48 0 77.856-28.304 85.696-65.808h3.232C454.736 435.696 490.128 464 532.592 464s77.856-28.304 85.696-65.808h3.232C629.376 435.696 664.768 464 707.232 464s77.856-28.304 85.696-65.808h3.232C804.016 435.696 839.392 464 881.872 464S968.16 435.008 976 397.504v-61.616A31.872 31.872 0 0 0 943.904 304z" fill="#95EAFF" p-id="1384"></path><path d="M224 558.688h-32v16a16 16 0 0 0 32 0v-16c0-21.328-32-21.328-32 0v369.776a16 16 0 0 0 32 0V558.688zM112 128L96 144h832l-16-16v62.32a16 16 0 0 0 32 0V128a16 16 0 0 0-16-16H96a16 16 0 0 0-16 16v65.456a16 16 0 0 0 32 0V128zM505.536 705.456a16 16 0 0 0 16 16h261.248a16 16 0 0 0 16-16v-125.536a16 16 0 0 0-32 0v125.536l16-16H521.536l16 16V544a16 16 0 0 0-32 0v161.456z" fill="#49A3FE" p-id="1385"></path><path d="M880 944a16 16 0 0 0 0-32H193.664a16 16 0 0 0 0 32H880z" fill="#0F13AE" p-id="1386"></path><path d="M128 517.632a16 16 0 0 0-16 16v394.384a16 16 0 0 0 32 0V533.632a16 16 0 0 0-16-16zM453.888 549.632a16 16 0 0 0-16-16H208.144a16 16 0 0 0 0 32h214.32V720H285.92a16 16 0 0 0 0 32h136.56v155.184a16 16 0 0 0 32 0V553.408c0-1.296-0.448-2.256-0.672-3.392 0-0.144 0.08-0.256 0.08-0.384z" fill="#0F13AE" p-id="1387"></path><path d="M160 304m-16 0a16 16 0 1 0 32 0 16 16 0 1 0-32 0Z" fill="#0F13AE" p-id="1388"></path><path d="M782.768 528m-16 0a16 16 0 1 0 32 0 16 16 0 1 0-32 0Z" fill="#0F13AE" p-id="1389"></path><path d="M960.96 307.408a15.936 15.936 0 0 0-1.168-5.808c0.016-0.384 0.208-0.704 0.208-1.088a16 16 0 0 0-16-16H216.48a16 16 0 0 0 0 32h712.48v57.968c0 1.136 0.416 2.144 0.656 3.216-0.224 1.072-0.656 2.08-0.656 3.216 0 36.864-31.76 67.072-71.312 67.072-39.568 0-71.312-30.208-71.312-67.072v-6.432a16 16 0 0 0-32 0v6.432c0 36.864-31.76 67.072-71.312 67.072-39.568 0-71.312-30.208-71.312-67.072v-6.432a16 16 0 0 0-32 0v6.432c0 36.864-31.76 67.072-71.312 67.072s-71.312-30.208-71.312-67.072v-6.432a16 16 0 0 0-32 0v6.432c0 36.864-31.76 67.072-71.312 67.072-39.568 0-71.312-30.208-71.312-67.072v-6.432a16 16 0 0 0-32 0v6.432C230.4 417.792 198.64 448 159.088 448s-71.312-30.208-71.312-67.072c0-1.136-0.416-2.144-0.656-3.216 0.224-1.072 0.656-2.08 0.656-3.216v-51.072a16 16 0 0 0-32 0v51.072c0 1.136 0.416 2.144 0.656 3.216-0.224 1.072-0.656 2.08-0.656 3.216C55.76 435.824 102.192 480 159.088 480c36.72 0 68.992-18.464 87.312-46.272C264.736 461.536 297.008 480 333.712 480c36.72 0 68.992-18.464 87.312-46.272C439.376 461.536 471.648 480 508.352 480s68.992-18.464 87.312-46.272C614.016 461.536 646.288 480 682.992 480c36.72 0 68.992-18.464 87.312-46.272C788.64 461.536 820.912 480 857.632 480c2.144 0 4.256-0.176 6.368-0.304v441.168a16 16 0 0 0 32 0V475.776c0-0.96-0.384-1.808-0.544-2.72 38.272-14.464 65.504-50.112 65.504-92.128 0-1.136-0.416-2.144-0.656-3.216 0.224-1.072 0.656-2.08 0.656-3.216v-67.088z" fill="#0F13AE" p-id="1390"></path></svg>