<?xml version="1.0" standalone="no"?><!DOCTYPE svg PUBLIC "-//W3C//DTD SVG 1.1//EN" "http://www.w3.org/Graphics/SVG/1.1/DTD/svg11.dtd"><svg t="1521558260585" class="icon" style="" viewBox="0 0 1024 1024" version="1.1" xmlns="http://www.w3.org/2000/svg" p-id="1136" xmlns:xlink="http://www.w3.org/1999/xlink" width="200" height="200"><defs><style type="text/css"></style></defs><path d="M538.56 346.848s177.056-143.184 241.104-142.512c64.032 0.672 106.992 55.536 106.992 55.536L655.984 490.544m-151.456 151.456L269.056 877.472s-81.888-2.368-55.536-106.992S357.888 524.8 357.888 524.8M787.936 654.688l119.92-57.296 60.944 60.944-308.784 308.8-60.96-60.944 58.592-123.696" fill="#95EAFF" p-id="1137"></path><path d="M734.688 385.056a15.984 15.984 0 1 0-22.624 22.624l42.032 42.032a15.984 15.984 0 1 0 22.624-22.624l-42.032-42.032zM840.72 363.088l-42.032-42.032a15.984 15.984 0 1 0-22.624 22.624l42.032 42.032a15.984 15.984 0 1 0 22.624-22.624zM350.688 769.056a15.984 15.984 0 1 0-22.624 22.624l42.032 42.032a15.984 15.984 0 1 0 22.624-22.624l-42.032-42.032zM414.688 705.056a15.984 15.984 0 1 0-22.624 22.624l42.032 42.032a15.984 15.984 0 1 0 22.624-22.624l-42.032-42.032z" fill="#0F13AE" p-id="1138"></path><path d="M240.656 844.576l-0.416-0.08a55.04 55.04 0 0 1-16.16-6.144c-20.272-11.824-28.896-35.504-17.696-79.968 4.832-19.168 13.248-40.768 24.832-64.32 11.552-23.488 26-48.416 42.672-74.16a1157.2 1157.2 0 0 1 73.6-100.832l-24.544-20.528a1076.448 1076.448 0 0 0-23.808 30.112 1183.84 1183.84 0 0 0-52.112 73.856c-17.312 26.736-32.368 52.704-44.528 77.424-12.496 25.424-21.712 49.056-27.152 70.624-14.544 57.712-0.56 96.08 32.608 115.424 14.096 8.224 27.952 11.184 37.984 11.472l6.896 0.192 4.88-4.88 235.472-235.472-22.624-22.624-229.904 229.904zM656.32 249.648c46.144-28.976 82.208-45.504 100.496-45.312 24.144 0.256 47.024 9.392 67.872 24.672 6.32 4.624 11.92 9.552 17.008 14.512L622 463.232l22.624 22.624 230.672-230.672 10.016-10.016-8.736-11.152c-6.272-8-17.44-19.424-32.976-30.816-25.84-18.928-54.864-30.528-86.448-30.848-26.752-0.272-66.32 17.856-117.84 50.208-11.696 7.344-23.808 15.312-36.272 23.84a1674.528 1674.528 0 0 0-97.216 72.032l20.128 24.88a1625.2 1625.2 0 0 1 28.176-21.984 1633.824 1633.824 0 0 1 66.96-48.512 1085.936 1085.936 0 0 1 35.232-23.168zM964.112 625.696l-60.944-60.944a15.984 15.984 0 0 0-18.208-3.12l-119.92 57.296a16 16 0 0 0 13.792 28.864l109.712-52.416 41.632 41.632L644 923.184l-41.664-41.664 53.76-113.504a16.016 16.016 0 0 0-28.928-13.696l-58.592 123.696a16 16 0 0 0 3.152 18.16l60.944 60.944a15.984 15.984 0 0 0 22.624 0l308.8-308.8a15.968 15.968 0 0 0 0.016-22.624z" fill="#49A3FE" p-id="1139"></path><path d="M261.296 292.208c2.048-6.816 4.8-13.616 8.288-19.84a63.04 63.04 0 0 1 10.24-13.856c4.064-4.064 9.264-7.824 15.312-11.184a117.76 117.76 0 0 1 20.368-8.768 96.48 96.48 0 0 1 8.896-2.528 16 16 0 1 0-6.688-31.296 142.464 142.464 0 0 0-38.128 14.624 100.816 100.816 0 0 0-22.4 16.528 94.848 94.848 0 0 0-15.52 20.832 125.056 125.056 0 0 0-14.08 38.656 16 16 0 0 0 31.536 5.392c0.272-1.488 0.96-4.528 2.176-8.56z" fill="#49A3FE" p-id="1140"></path><path d="M861.024 731.936L611.232 410.912 774.448 247.68a15.984 15.984 0 1 0-22.624-22.624L591.424 385.456l-141.424-181.76a131.344 131.344 0 0 0-18.88-24.064C362.352 110.864 203.776 65.472 146.128 123.12c-57.664 57.664-12.256 216.224 56.496 284.992 7.28 7.28 15.376 13.536 24.064 18.88l191.136 148.72c-0.656 0.48-1.424 0.736-2.016 1.328L248.064 744.832a15.984 15.984 0 1 0 22.624 22.624L438.448 599.68c1.536-1.536 2.688-3.328 3.472-5.216l313.008 243.552a16 16 0 1 0 19.648-25.248L246.336 401.744a109.328 109.328 0 0 1-21.072-16.24c-57.936-57.936-98.08-198.16-56.496-239.744s181.792-1.44 239.728 56.496c5.872 5.872 10.928 12.384 15.12 19.44l412.144 529.888a16 16 0 0 0 25.264-19.648z" fill="#0F13AE" p-id="1141"></path><path d="M734.688 689.056a15.984 15.984 0 1 0-22.624 22.624l80.624 80.624a15.984 15.984 0 1 0 22.624-22.624l-80.624-80.624z" fill="#0F13AE" p-id="1142"></path></svg>